<?xml version="1.0" standalone="no"?>
<!DOCTYPE svg PUBLIC "-//W3C//DTD SVG 20010904//EN"
 "http://www.w3.org/TR/2001/REC-SVG-20010904/DTD/svg10.dtd">
<svg version="1.0" xmlns="http://www.w3.org/2000/svg"
 width="500.000000pt" height="500.000000pt" viewBox="0 0 500.000000 500.000000"
 preserveAspectRatio="xMidYMid meet">
<metadata>
Created by potrace 1.14, written by Peter Selinger 2001-2017
</metadata>
<g transform="translate(0.000000,500.000000) scale(0.100000,-0.100000)"
fill="#000000" stroke="none">
<path d="M2101 4816 c-7 -8 -19 -35 -26 -60 -12 -39 -12 -48 1 -60 19 -20 124
-33 216 -27 34 2 15 11 -36 17 -94 12 -141 29 -144 52 -2 13 3 25 13 28 24 10
93 -14 142 -47 23 -16 46 -29 51 -29 5 0 9 -10 8 -22 -1 -21 3 -23 34 -19 19
3 58 5 86 4 46 0 52 2 61 26 9 24 81 69 139 85 27 8 57 -15 49 -36 -6 -16 -25
-23 -90 -33 -83 -13 -95 -17 -91 -24 14 -22 213 10 223 36 3 8 -2 39 -11 69
-15 48 -20 54 -45 54 -39 0 -145 -55 -175 -91 -14 -16 -28 -25 -31 -19 -10 17
-106 12 -127 -7 -16 -14 -18 -14 -18 0 0 8 -14 27 -31 42 -70 58 -174 90 -198
61z"/>
<path d="M2170 4601 c-73 -29 -162 -78 -203 -111 -7 -5 -46 -36 -87 -68 -88
-69 -213 -194 -271 -272 -82 -109 -137 -251 -139 -355 -1 -37 -2 -38 -11 -15
-11 25 -7 143 6 190 7 24 6 23 -13 -4 -70 -101 -44 -271 56 -369 l40 -39 11
34 c13 39 84 104 180 167 l63 40 3 88 c4 143 50 278 148 430 72 112 209 240
304 285 24 11 43 24 43 28 0 16 -43 6 -130 -29z"/>
<path d="M2313 4599 c-114 -76 -282 -267 -346 -392 -34 -68 -73 -179 -81 -231
-9 -55 -19 -61 -14 -8 2 23 0 42 -3 42 -14 0 -33 -163 -22 -183 3 -4 10 -4 16
1 14 11 223 74 317 96 256 58 576 33 883 -69 56 -19 103 -32 105 -31 5 5 3
140 -2 165 -9 42 -38 124 -67 188 -52 116 -109 186 -269 334 -50 46 -41 43 40
-12 148 -100 299 -335 337 -524 3 -16 5 -64 5 -106 l-1 -77 52 -35 c77 -50
149 -115 173 -153 l20 -33 42 42 c75 76 100 192 68 312 -17 67 -38 104 -107
201 -57 79 -79 102 -188 194 -172 145 -358 233 -641 304 -50 12 -196 18 -180
7 13 -9 13 -11 -2 -11 -10 0 -18 5 -18 10 0 23 -60 8 -117 -31z m152 1 c3 -5
1 -10 -4 -10 -6 0 -11 5 -11 10 0 6 2 10 4 10 3 0 8 -4 11 -10z"/>
<path d="M2378 3905 c-2 -1 -32 -5 -68 -9 -84 -8 -114 -14 -235 -48 -85 -23
-127 -39 -121 -45 2 -3 13 0 23 5 10 5 45 13 78 17 52 5 58 4 45 -8 -176 -164
-226 -208 -256 -226 -16 -10 -11 -11 31 -7 28 2 88 11 135 19 111 20 207 30
165 17 -16 -5 -43 -12 -60 -15 -16 -2 -91 -18 -165 -35 -169 -37 -264 -48
-285 -30 -23 19 -18 55 11 89 31 37 17 41 -24 6 -58 -49 -59 -111 -2 -135 39
-16 150 -8 258 19 101 25 282 59 357 66 33 4 71 8 85 11 82 14 207 24 350 29
265 10 368 35 439 109 l34 36 -54 23 c-90 39 -189 64 -379 98 -55 10 -354 21
-362 14z"/>
<path d="M3176 3703 c-16 -19 -40 -42 -52 -50 -33 -21 -146 -61 -201 -69 -26
-5 -51 -9 -55 -10 -5 -1 -29 -2 -56 -3 -46 -1 -47 -2 -60 -43 -24 -75 -109
-185 -197 -254 -22 -17 -74 -44 -115 -60 -65 -24 -89 -28 -185 -28 -132 -1
-228 25 -301 81 l-46 35 -21 -20 c-29 -29 -25 -94 8 -139 23 -29 24 -33 8 -35
-33 -2 -78 4 -95 13 -27 15 -23 -13 6 -40 32 -30 94 -38 134 -17 36 19 37 18
18 -28 -15 -36 -64 -78 -108 -92 -26 -9 -26 -9 -12 -49 17 -48 95 -305 119
-395 27 -98 141 -239 295 -364 198 -161 305 -157 521 22 166 138 254 248 308
384 30 73 89 291 111 403 l11 60 -53 55 c-76 78 -99 149 -90 280 3 52 6 137 6
188 0 78 2 91 12 77 23 -31 32 -107 28 -231 -3 -100 0 -131 15 -175 27 -77 42
-107 57 -113 8 -3 7 6 -6 27 -10 18 -23 48 -29 67 -13 44 -20 130 -9 124 4 -3
8 -13 8 -23 0 -49 79 -165 141 -205 60 -40 106 -53 172 -50 143 8 257 107 270
233 5 51 -13 136 -35 157 -12 12 -13 8 -10 -26 7 -72 -42 -124 -126 -135 l-37
-4 31 14 c41 18 84 70 86 103 4 74 -2 97 -38 132 -31 30 -34 31 -19 8 22 -36
16 -79 -14 -94 -43 -22 -108 18 -131 79 -29 77 -57 121 -99 156 -42 35 -127
92 -133 90 -2 0 -16 -16 -32 -36z m-722 -1010 c0 -48 -3 -59 -18 -61 -16 -3
-17 1 -11 40 6 37 21 78 28 78 1 0 2 -26 1 -57z"/>
<path d="M2597 3564 c-1 -1 -46 -4 -101 -8 -54 -3 -101 -8 -105 -10 -3 -2 -40
-7 -81 -10 -66 -6 -114 -13 -215 -32 -14 -2 -62 -13 -108 -24 -45 -10 -95 -22
-112 -24 -16 -3 -41 -8 -55 -11 -14 -3 -57 -6 -96 -6 -80 -1 -128 18 -146 56
l-11 24 -31 -22 c-49 -35 -76 -47 -107 -47 -15 0 -31 -4 -34 -10 -3 -5 3 -10
14 -10 27 0 27 -12 0 -36 -20 -17 -49 -73 -49 -91 0 -4 9 3 20 17 l21 25 -12
-27 c-7 -16 -15 -28 -19 -28 -14 0 -16 -141 -2 -166 7 -12 11 -3 16 36 12 88
47 137 131 182 l40 21 -41 -39 c-115 -109 -117 -271 -5 -381 35 -35 35 -36 10
-30 -17 5 -44 -1 -74 -14 -139 -61 -301 68 -236 188 14 28 38 41 73 39 14 -1
24 2 21 7 -3 5 -24 7 -46 4 -99 -13 -154 -143 -121 -288 37 -165 158 -250 290
-205 26 9 45 14 43 12 -32 -31 -210 -137 -252 -150 -147 -46 -295 51 -280 182
5 46 31 82 64 89 16 3 26 9 24 13 -3 5 -15 6 -28 3 -38 -10 -81 -48 -104 -94
-39 -79 -50 -227 -21 -284 22 -42 112 -130 153 -149 42 -20 115 -31 124 -19 3
5 40 6 81 2 41 -3 68 -7 60 -7 -8 -1 -28 -9 -45 -18 -21 -11 -56 -15 -130 -13
-55 1 -104 5 -110 9 -21 17 -103 32 -165 31 -157 -2 -306 -147 -312 -303 -4
-111 0 -125 32 -142 17 -8 30 -10 30 -5 0 5 7 9 15 9 10 0 15 10 15 28 0 41
43 122 91 171 52 53 121 86 217 104 78 15 106 7 43 -11 -46 -14 -144 -77 -190
-123 -38 -38 -76 -116 -86 -175 -15 -85 -29 -95 -65 -44 -18 26 -24 28 -45 18
-13 -6 -21 -16 -18 -24 8 -22 73 -57 103 -56 26 1 29 -4 41 -51 6 -29 18 -65
26 -80 13 -25 13 -31 0 -45 -23 -27 -43 -102 -46 -168 -3 -76 30 -176 73 -223
36 -39 121 -82 144 -73 12 4 8 8 -14 14 -53 13 -120 82 -140 141 -17 52 -27
148 -17 173 11 28 20 13 27 -42 13 -109 93 -222 191 -268 48 -23 102 -72 122
-109 18 -35 19 -107 3 -138 -28 -52 -128 -76 -189 -45 -36 19 -89 79 -97 111
-17 70 29 130 92 119 22 -3 25 -2 14 6 -39 26 -103 1 -147 -57 -25 -32 -28
-45 -27 -104 0 -56 5 -75 27 -108 58 -87 165 -136 282 -129 139 10 280 112
288 208 1 11 5 20 10 20 5 0 6 -25 3 -56 -8 -76 -44 -136 -104 -171 -63 -37
-165 -62 -210 -52 -32 7 -34 6 -19 -9 18 -18 46 -19 252 -10 192 9 269 50 320
171 l14 34 -137 90 c-152 100 -227 145 -318 192 -69 35 -99 63 -91 84 3 7 36
21 74 30 77 19 420 132 533 176 42 16 75 34 75 42 0 8 -18 24 -40 36 -22 12
-67 47 -100 78 -33 31 -126 99 -207 152 -82 52 -148 101 -148 108 0 7 20 25
45 39 63 37 153 99 348 240 93 67 218 153 280 192 101 65 135 94 109 94 -28 0
-140 218 -172 333 -9 35 -17 47 -31 47 -32 0 -95 46 -142 105 -51 61 -87 146
-87 203 -1 20 -9 62 -20 92 -11 30 -19 73 -20 96 0 49 25 128 48 146 14 11 15
10 8 -7 -25 -67 -29 -105 -18 -156 18 -74 56 -131 112 -162 64 -36 117 -40
172 -14 l43 20 -40 7 c-56 9 -80 27 -104 79 -24 54 -31 107 -22 152 l7 33 29
-59 c17 -32 40 -65 52 -72 l21 -14 -15 43 c-19 54 -4 113 38 146 l29 23 37
-30 c61 -49 108 -63 224 -69 154 -7 192 8 418 160 13 9 28 15 32 12 10 -6 52
57 73 108 l16 37 -51 -2 c-28 -1 -51 -3 -52 -3z m-1437 -666 c0 -47 118 -121
192 -121 22 0 34 -3 28 -7 -17 -11 -102 -3 -131 12 -31 17 -73 49 -83 66 -14
23 -25 73 -15 67 5 -4 9 -11 9 -17z m-212 -509 c30 -34 68 -61 119 -85 41 -20
73 -38 70 -40 -2 -2 -32 6 -67 18 -47 15 -77 34 -111 68 -46 46 -89 116 -89
142 0 7 8 -2 17 -20 9 -18 36 -56 61 -83z m38 -176 c-3 -3 -38 -11 -78 -19
-100 -19 -169 -57 -237 -130 -56 -59 -91 -128 -91 -177 0 -10 -5 -17 -12 -14
-9 2 -12 23 -11 65 4 122 89 230 207 264 43 13 233 22 222 11z m45 -129 c-167
-65 -278 -187 -301 -332 -9 -55 -9 -54 -5 23 2 44 10 97 19 118 33 75 135 153
256 194 88 30 111 28 31 -3z m-1 -89 c0 -2 -15 -12 -32 -21 -50 -24 -133 -126
-156 -189 -6 -16 -11 -23 -11 -15 -1 22 49 112 86 153 17 20 48 45 70 56 43
23 43 23 43 16z m58 -386 c-66 -52 -92 -81 -126 -144 -25 -46 -27 -59 -27
-168 l0 -118 -14 57 c-12 49 -12 71 -2 134 21 121 65 189 166 253 61 39 63 32
3 -14z"/>
<path d="M2552 3370 c-60 -54 -148 -104 -232 -132 l-55 -18 45 6 c51 7 126 36
185 72 46 28 115 95 115 111 0 15 1 16 -58 -39z"/>
<path d="M3230 3087 c0 -20 43 -57 66 -56 17 0 16 2 -6 17 -13 9 -33 25 -42
35 -13 12 -18 13 -18 4z"/>
<path d="M3520 3004 c-19 -7 -47 -13 -62 -13 -24 -1 -28 -5 -28 -31 0 -16 -10
-55 -22 -87 -26 -70 -123 -172 -178 -188 -28 -8 -37 -17 -48 -49 -7 -22 -14
-52 -16 -68 -1 -15 -6 -31 -9 -35 -4 -3 -7 -11 -7 -16 0 -5 9 2 20 16 19 24
27 49 30 92 2 46 33 -40 33 -95 1 -99 -60 -160 -159 -160 -31 0 -35 -2 -24
-15 17 -21 63 -19 110 5 38 19 73 59 99 112 19 37 9 113 -18 142 -25 26 -26
36 -6 36 16 0 77 55 69 63 -3 2 16 10 41 16 30 7 62 27 91 53 61 56 80 94 84
168 1 23 2 23 9 5 12 -28 4 -104 -13 -129 -30 -46 -89 -97 -126 -109 -8 -2 -2
-3 15 0 16 2 48 13 70 24 99 51 132 115 126 247 -1 36 -19 40 -81 16z"/>
<path d="M1630 2983 c0 -11 8 -42 17 -69 18 -54 111 -156 152 -167 26 -6 27
-12 -8 117 l-18 68 -51 17 c-29 10 -61 26 -72 36 -19 18 -20 17 -20 -2z"/>
<path d="M3245 2988 c-2 -7 -11 -58 -19 -113 -8 -55 -18 -108 -21 -118 -15
-38 56 -6 103 48 44 49 63 90 65 137 2 41 2 41 -38 44 -22 2 -50 6 -63 9 -13
3 -24 0 -27 -7z"/>
<path d="M2980 2169 c1 -57 5 -90 15 -103 8 -10 19 -42 24 -70 6 -28 24 -119
41 -202 34 -171 45 -296 31 -369 -16 -83 -75 -235 -138 -351 -32 -60 -69 -134
-82 -164 -39 -94 -128 -256 -199 -364 -37 -57 -89 -138 -115 -180 -26 -42 -51
-75 -55 -72 -8 5 -53 71 -154 226 -61 93 -168 280 -168 293 0 5 -38 88 -84
185 -133 281 -165 395 -160 568 1 55 9 133 18 174 8 41 17 87 20 102 17 97 40
197 52 220 14 28 20 178 7 178 -4 0 -23 -11 -42 -24 -20 -13 -56 -35 -81 -49
-25 -14 -76 -51 -115 -82 -103 -83 -336 -242 -474 -323 -10 -6 5 -19 56 -49
92 -55 238 -169 299 -233 27 -29 64 -67 82 -86 17 -18 32 -35 32 -37 0 -8
-205 -104 -235 -111 -16 -4 -71 -22 -121 -42 -50 -19 -135 -45 -188 -59 -54
-14 -102 -28 -108 -31 -6 -4 4 -14 23 -24 64 -32 174 -93 189 -104 8 -7 35
-22 60 -35 61 -32 285 -196 355 -260 11 -10 79 -69 150 -130 72 -62 228 -209
347 -327 132 -130 224 -214 236 -214 28 0 66 33 282 251 180 180 300 292 375
350 17 13 46 38 65 55 117 105 341 260 500 347 30 16 82 46 114 65 68 41 73
35 -69 77 -177 52 -216 68 -213 85 3 18 -18 50 -33 50 -5 0 -26 10 -47 23 -20
13 -65 39 -100 57 -60 32 -63 32 -82 15 -27 -25 -25 -32 13 -50 17 -8 23 -13
12 -9 -11 3 -32 8 -47 11 -26 5 -40 23 -19 23 5 0 23 23 41 50 59 92 212 218
377 311 24 13 43 27 43 30 0 3 -12 11 -27 18 -34 15 -218 140 -343 232 -152
111 -212 153 -265 183 -27 16 -60 36 -72 44 l-23 14 0 -83z m-1010 -2 c-23
-21 -216 -176 -302 -242 -43 -33 -99 -77 -125 -98 -67 -53 -119 -79 -155 -75
-27 3 -23 7 59 55 49 29 98 61 109 71 10 9 51 39 89 66 39 27 108 79 155 116
96 76 223 156 170 107z m1145 -879 c-15 -134 -24 -167 -83 -333 -65 -182 -145
-370 -196 -465 -44 -80 -47 -68 -5 15 40 77 146 346 197 500 35 103 74 263 75
302 0 7 3 10 7 8 4 -3 6 -15 5 -27z m-1580 -67 c-19 -19 -191 -99 -235 -109
-67 -17 -110 -21 -110 -12 0 10 3 11 110 39 41 11 111 36 155 55 89 39 93 40
80 27z m538 -456 c71 -173 90 -221 82 -213 -24 24 -158 348 -169 408 -4 26 -1
21 15 -20 12 -30 44 -109 72 -175z m101 -241 c3 -8 2 -12 -4 -9 -6 3 -10 10
-10 16 0 14 7 11 14 -7z"/>
<path d="M2835 2138 c-111 -100 -178 -144 -247 -162 -66 -17 -154 -11 -213 15
-48 21 -157 101 -209 153 -17 17 -42 40 -55 51 l-24 20 7 -39 c4 -21 15 -51
23 -65 44 -71 69 -108 89 -131 l23 -25 -47 0 c-26 0 -54 4 -62 8 -8 5 8 -12
35 -37 63 -58 221 -140 302 -157 54 -11 69 -10 124 5 90 25 197 81 283 148
l76 59 -4 116 c-3 63 -6 117 -8 118 -2 2 -44 -33 -93 -77z"/>
<path d="M2052 1694 c-30 -12 -42 -41 -32 -79 2 -9 10 -227 10 -283 0 -29 26
-52 59 -52 23 0 240 82 289 109 13 7 16 27 16 105 l1 97 -75 38 c-131 66 -217
87 -268 65z m58 -24 c13 -8 13 -10 -1 -10 -27 0 -43 -29 -45 -83 -4 -85 -5
-85 -19 -7 -12 67 -12 77 2 92 18 20 40 23 63 8z"/>
<path d="M2910 1703 c-45 -7 -94 -25 -190 -70 l-95 -44 0 -95 0 -94 120 -56
c75 -34 139 -57 171 -61 47 -5 53 -3 68 20 14 20 16 43 14 109 -2 45 -1 106 4
133 17 108 17 123 0 138 -20 17 -58 25 -92 20z"/>
<path d="M2444 1595 c-20 -20 -24 -34 -24 -87 0 -35 6 -74 13 -88 17 -33 66
-46 116 -31 45 13 53 33 53 133 0 76 -14 91 -83 94 -43 2 -55 -1 -75 -21z"/>
<path d="M2378 1338 c-93 -127 -238 -341 -238 -351 0 -3 30 -7 68 -9 l67 -3
12 -47 c6 -26 14 -62 17 -80 15 -100 25 -122 38 -87 11 27 148 565 148 578 0
5 -12 11 -27 13 -16 3 -35 8 -44 12 -12 5 -24 -2 -41 -26z"/>
<path d="M2596 1362 c-3 -5 -19 -12 -36 -15 -29 -6 -30 -8 -24 -49 4 -24 20
-95 36 -158 16 -63 31 -124 34 -135 13 -67 69 -255 75 -255 5 0 11 17 15 38
14 82 35 175 40 184 3 5 33 8 65 7 32 -1 62 0 65 3 8 8 -55 112 -159 262 -80
116 -99 137 -111 118z"/>
<path d="M2486 1014 c-9 -8 -16 -19 -16 -24 0 -14 40 -32 56 -26 19 7 18 52
-2 60 -21 8 -20 8 -38 -10z"/>
<path d="M2485 856 c-20 -14 -14 -51 10 -60 19 -7 60 27 51 42 -14 23 -42 32
-61 18z"/>
<path d="M2480 639 c-21 -38 22 -65 54 -33 12 12 13 20 6 35 -14 25 -46 24
-60 -2z"/>
<path d="M2479 479 c-10 -20 -9 -25 11 -41 21 -17 24 -17 41 -2 13 11 15 22
10 37 -11 31 -47 34 -62 6z"/>
</g>
</svg>
